<?xml version="1.0" encoding="utf-8"?>
<!-- Generator: Adobe Illustrator 23.0.3, SVG Export Plug-In . SVG Version: 6.00 Build 0)  -->
<svg version="1.1" id="Layer_1" xmlns="http://www.w3.org/2000/svg" xmlns:xlink="http://www.w3.org/1999/xlink" x="0px" y="0px"
	 viewBox="0 0 32 32" style="enable-background:new 0 0 32 32;" xml:space="preserve">
<style type="text/css">
	.st0{clip-path:url(#SVGID_2_);}
	.st1{clip-path:url(#SVGID_4_);}
</style>
<g>
	<g>
		<path d="M12,28c-0.1679688,0-0.3369141-0.0424805-0.4892578-0.1279297C11.1953125,27.6953125,11,27.3618164,11,27v-6.1113281
			c0-0.3481445,0.1816406-0.671875,0.4785156-0.8535156L18.0820313,16l-6.6035156-4.0351563
			C11.1816406,11.7832031,11,11.4594727,11,11.1113281V5c0-0.3618164,0.1953125-0.6953125,0.5107422-0.8720703
			c0.3164063-0.1767578,0.7021484-0.1694336,1.0107422,0.0185547l18,11C30.8183594,15.3286133,31,15.6518555,31,16
			s-0.1816406,0.6713867-0.4785156,0.8535156l-18,11C12.3613281,27.9511719,12.1806641,28,12,28z M13,21.449707v3.7670898
			L28.0820313,16L13,6.7832031v3.7670898l7.5214844,4.5961914C20.8183594,15.328125,21,15.6518555,21,16
			s-0.1816406,0.671875-0.4785156,0.8535156L13,21.449707z"/>
	</g>
	<g>
		<g>
			<path d="M2,28c-0.1679688,0-0.3369141-0.0424805-0.4892578-0.1279297C1.1953125,27.6953125,1,27.3618164,1,27V5
				c0-0.3618164,0.1953125-0.6953125,0.5107422-0.8720703c0.3164063-0.1767578,0.7021484-0.1694336,1.0107422,0.0185547l18,11
				C20.8183594,15.3286133,21,15.6518555,21,16s-0.1816406,0.6713867-0.4785156,0.8535156l-18,11
				C2.3613281,27.9511719,2.1806641,28,2,28z M3,6.7832031v18.4335938L18.0820313,16L3,6.7832031z"/>
		</g>
	</g>
</g>
</svg>
