<?xml version="1.0" encoding="utf-8"?>
<!-- Generator: Adobe Illustrator 23.0.3, SVG Export Plug-In . SVG Version: 6.00 Build 0)  -->
<svg version="1.1" id="Layer_1" xmlns="http://www.w3.org/2000/svg" xmlns:xlink="http://www.w3.org/1999/xlink" x="0px" y="0px"
	 viewBox="0 0 32 32" style="enable-background:new 0 0 32 32;" xml:space="preserve">
<style type="text/css">
	.st0{clip-path:url(#SVGID_2_);}
	.st1{clip-path:url(#SVGID_4_);}
</style>
<g>
	<g>
		<path d="M13,28H7c-0.5522461,0-1-0.4477539-1-1V5c0-0.5522461,0.4477539-1,1-1h6c0.5522461,0,1,0.4477539,1,1v22
			C14,27.5522461,13.5522461,28,13,28z M8,26h4V6H8V26z"/>
	</g>
	<g>
		<path d="M25,28h-6c-0.5522461,0-1-0.4477539-1-1V5c0-0.5522461,0.4477539-1,1-1h6c0.5522461,0,1,0.4477539,1,1v22
			C26,27.5522461,25.5522461,28,25,28z M20,26h4V6h-4V26z"/>
	</g>
</g>
</svg>
